<svg width="240" height="240" viewBox="0 0 240 240" fill="none" xmlns="http://www.w3.org/2000/svg">
<g filter="url(#filter0_d_6_8)">
<circle cx="120" cy="120" r="100" fill="white"/>
<circle cx="120" cy="120" r="99.5" stroke="black" stroke-opacity="0.08"/>
</g>
<path d="M121.628 41.2379C115.147 42.6009 112.68 43.8235 107.951 48.082C101.75 53.6654 95.9133 61.8713 87.1321 77.5335C82.6036 85.6077 81.0487 88.5304 77.6263 95.561C76.6781 97.414 75.6117 99.6112 75.2177 100.442C74.7764 101.22 73.6418 103.764 72.6202 106.064C70.4586 111.007 70.1907 111.344 69.0945 110.285C64.7547 106.152 49.7943 107.872 45.4227 112.951C43.5522 115.206 43.2374 117.392 44.4023 120.007C46.3796 124.316 48.8291 125.346 55.8193 124.76C58.2817 124.589 60.4366 124.552 60.5811 124.659C60.7231 124.817 59.7929 125.369 58.5658 125.856C56.8289 126.516 55.218 126.682 51.573 126.491C45.6811 126.182 44.5669 126.424 44.4937 127.822C44.4205 129.22 46.4156 131.278 49.3882 132.835C52.8996 134.621 55.4357 134.954 58.8386 134.031C62.1942 133.055 62.1916 133.105 60.7736 137.237C59.8887 139.794 59.7336 139.886 55.3613 142.11C43.7868 148.013 36.5743 152.842 34.6593 155.947C33.4589 157.836 33.4484 158.036 34.0823 160.272C34.4164 161.541 35.5575 163.654 36.5906 164.96C38.7042 167.624 40.1286 168.149 47.9365 169.159L52.8115 169.765L52.5186 175.357C51.9355 186.492 54.4288 194.333 59.4805 197.301C62.8316 199.279 68.7806 196.587 75.0203 190.254C79.3001 185.972 85.3265 177.977 86.1563 175.517C86.8102 173.548 86.9626 173.506 96.6759 175.417C111.693 178.356 126.999 182.462 138.55 186.572C141.94 187.801 147.788 189.91 151.575 191.209C155.36 192.559 161.405 194.728 165.042 196.02C169.612 197.662 172.527 198.415 174.674 198.527C179.018 198.755 180.468 197.83 183.116 193.162C186.544 186.982 186.63 183.432 183.573 162.444C182.731 156.541 180.991 146.737 180.505 144.559C180.249 143.694 180.502 143.657 185.726 144.281C190.007 144.756 191.458 144.782 192.585 144.29L193.972 143.612L192.493 142.232C191.536 141.381 188.705 139.981 185.07 138.639C180.158 136.83 179.036 136.27 178.739 135.253C178.092 133.267 178.318 132.778 180.378 131.684C189.551 126.707 194.516 121.76 194.749 117.316C194.822 115.918 194.546 115.453 192.945 114.468C191.928 113.814 190.706 113.249 190.257 113.226C188.958 113.158 189.35 112.377 192.03 109.964C195.182 107.125 197.42 103.587 198.25 100.176C199.085 96.6647 198.551 95.3851 195.676 93.8826C193.773 92.9318 192.829 92.7823 190.167 92.9433C186.049 93.1782 177.759 94.6967 173.181 96.0592L169.72 97.1296L169.336 95.8578C169.073 95.1431 168.684 93.9711 168.426 93.1565C168.166 92.3919 167.387 90.0479 166.746 87.9615C164.347 80.2255 159.403 68.5009 157.124 65.1771C156.522 64.2444 156.017 63.3668 156.028 63.167C156.062 62.5179 151.771 56.4853 148.798 53.0251C145.121 48.6768 141.425 45.6293 137.53 43.5227C131.295 40.1921 128.462 39.7934 121.628 41.2379ZM132.978 52.0463C139.73 55.0536 147.135 63.7527 152.643 75.2065C155.807 81.7309 161.579 98.6559 160.93 99.5733C160.768 99.8151 159.538 100.352 158.216 100.733C156.892 101.164 153.273 102.377 150.162 103.465C144.247 105.509 142.41 106.164 129.248 110.832C124.758 112.449 119.707 114.237 118.025 114.8C116.341 115.413 113.327 116.557 111.333 117.354C109.338 118.15 107.244 118.942 106.637 119.06C106.077 119.231 103.983 120.023 101.986 120.87C99.939 121.714 98.1995 122.424 98.0997 122.419C97.7501 122.4 80.4313 129.955 75.607 132.206C73.3998 133.242 71.458 133.991 71.366 133.836C70.7508 133.153 78.3878 113.525 82.4721 105.328C82.8661 104.497 84.379 101.422 85.8341 98.4943C89.2565 91.4637 97.8144 76.2404 101.014 71.5513C102.372 69.5196 103.678 67.5351 103.848 67.1435C104.245 66.2631 108.577 60.9824 111.441 57.928C114.092 55.1128 117.883 52.5075 120.939 51.516C124.2 50.435 129.845 50.6806 132.978 52.0463ZM187.466 103.416C187.453 103.666 185.693 105.727 183.565 108.119C179.632 112.469 178.754 112.974 175.353 112.896C173.853 112.867 173.464 112.647 173.5 111.948C173.524 111.498 173.248 110.082 172.861 108.86C172.524 107.641 172.33 106.579 172.382 106.532C172.485 106.487 175.283 105.632 178.639 104.656C184.383 103.005 187.51 102.567 187.466 103.416ZM164.686 111.987C166.533 119.744 166.951 121.318 167.209 122.133C167.601 123.255 166.999 123.273 165.753 122.206C165.036 121.568 164.87 120.909 165.061 119.166C165.295 116.625 164.416 114.276 162.731 112.986C161.62 112.227 161.317 112.261 157.544 113.565C152.546 115.306 152.339 115.446 153.514 116.909C154.079 117.59 155.336 120.359 156.395 123.068C157.453 125.827 158.386 128.079 158.436 128.082C159.085 128.116 161.198 126.975 161.219 126.575C161.232 126.326 160.451 124.032 159.43 121.525C158.463 118.971 157.721 116.879 157.826 116.784C157.929 116.74 158.546 116.422 159.213 116.106C160.291 115.612 160.538 115.675 161.095 116.505C161.976 117.853 161.758 119.143 160.591 119.433C160.034 119.554 159.567 119.88 159.553 120.129C159.54 120.379 160.721 121.743 162.198 123.172C164.771 125.66 164.966 125.77 166.248 125.186C167.53 124.603 167.628 124.658 168.096 126.235C168.861 128.828 168.683 129.369 166.788 130.172C164.536 131.105 163.654 132.661 164.022 135.184C164.299 137.551 166.759 140.284 169.464 141.227C170.544 141.634 171.422 142.08 171.414 142.23C171.406 142.38 172.022 145.917 172.803 150.113C174.933 162.041 177.416 180.596 177.253 183.692C177.149 185.689 176.839 186.825 176.096 187.637L175.137 188.738L170.017 187.068C167.21 186.17 162.931 184.694 160.477 183.765C133.656 173.899 120.003 169.779 103.301 166.501C94.3816 164.732 76.5582 161.846 73.4125 161.681C71.5177 161.532 71.5177 161.532 72.8026 160.898C73.7774 160.449 74.0532 159.962 74.0109 158.859C73.9239 157.652 74.1892 157.366 75.5136 156.935C76.838 156.503 77.1349 156.569 77.687 157.499C78.2891 158.432 78.5361 158.495 80.1627 158.029L81.989 157.574L78.6214 153.042C76.7497 150.54 74.7859 147.884 74.226 147.104L73.2454 145.751L70.5337 146.86C67.8718 147.973 67.8193 148.02 68.7761 148.871C69.5436 149.512 69.8278 150.779 70.1336 154.5C70.2972 157.112 70.5606 159.729 70.6317 160.284C70.8317 161.246 70.6294 161.285 67.0421 160.947L63.2578 160.548L63.6385 159.016C63.8853 158.128 64.6439 155.114 65.3948 152.249L66.7679 147.064L71.6473 144.716C85.9836 137.706 107.37 128.962 127.932 121.628C130.328 120.802 133.545 119.618 135.077 119.048C136.606 118.527 141.094 116.96 145.02 115.613C148.946 114.267 154.099 112.434 156.495 111.608C160.476 110.164 162.817 109.435 163.721 109.383C163.924 109.343 164.36 110.568 164.686 111.987ZM176.524 116.362C175.347 118.753 175.245 118.798 174.726 117.219C173.995 114.928 174.224 114.389 175.872 114.475L177.369 114.554L176.524 116.362ZM186.4 117.079C187.385 117.381 188.213 117.825 188.203 118.025C188.179 118.474 177.595 124.579 176.946 124.545C176.397 124.516 175.426 120.109 175.857 119.531C175.97 119.287 176.984 119.04 178.093 118.897C179.2 118.805 180.784 118.187 181.57 117.527C183.241 116.213 183.743 116.189 186.4 117.079ZM69.4895 113.26C69.2479 114.048 68.728 115.373 68.334 116.203C67.7089 117.623 67.4514 117.759 66.1663 117.442C65.3752 117.25 62.4687 117.298 59.6989 117.604C53.9597 118.204 50.0072 118.147 50.0464 117.398C50.0778 116.799 53.5882 114.78 56.6022 113.636C59.3613 112.579 64.4619 111.745 67.5103 111.854C69.8597 111.927 69.8597 111.927 69.4895 113.26ZM75.6391 154.538C76.1938 155.418 76.1912 155.468 75.6208 154.887C75.237 154.567 74.5537 154.231 74.1043 154.207C73.3553 154.168 72.7243 152.833 72.808 151.235C72.8393 150.636 73.9723 151.947 75.6391 154.538ZM55.4623 156.435L54.7404 159.702L51.6473 159.49C49.9995 159.404 48.1625 159.107 47.6737 158.881C46.7932 158.485 46.9009 158.34 48.5089 157.273C50.9499 155.598 55.9002 152.853 56.0921 153.013C56.1893 153.069 55.9085 154.606 55.4623 156.435ZM72.7266 171.909C77.4991 172.56 81.7749 173.134 82.1744 173.155C82.5712 173.226 82.2533 173.56 81.381 173.965C79.4313 174.864 76.4149 177.009 70.2484 181.943C67.5317 184.104 64.6652 186.257 63.8874 186.767C62.4896 187.645 62.4397 187.643 61.9874 186.718C60.9067 184.408 60.6154 175.631 61.5001 172.122C61.9963 170.296 61.1422 170.351 72.7266 171.909Z" fill="black"/>
<path d="M134.427 75.0536C132.238 76.6913 131.989 79.5322 133.855 81.1821C138.069 84.8575 143.378 79.0772 139.32 75.3098C138.508 74.5663 137.441 73.9096 136.941 73.8835C136.442 73.8573 135.312 74.399 134.427 75.0536Z" fill="black"/>
<path d="M108.337 77.0418C105.649 79.6047 107.23 83.8432 110.875 84.0341C113.371 84.1648 114.948 82.7453 115.076 80.2987C115.267 76.6537 110.922 74.5236 108.337 77.0418Z" fill="black"/>
<path d="M129.442 88.0106C128.633 88.1685 125.19 88.8894 121.848 89.6156C118.505 90.3418 115.165 91.0181 114.411 91.0787C113.554 91.184 112.982 91.6047 112.955 92.104C112.921 92.7531 115.306 96.9335 119.152 102.843C119.568 103.515 120.191 104.049 120.54 104.067C121.139 104.098 126.026 99.698 132.568 93.3314C136.898 89.052 135.565 86.7791 129.442 88.0106ZM128.623 93.1248C127.415 94.2131 125.463 96.1136 124.197 97.349C122.928 98.6344 121.674 99.6202 121.375 99.6046C120.576 99.5627 117.694 94.3549 118.217 93.9316C118.43 93.6925 120.716 93.0612 123.202 92.4403C125.738 91.8221 128.323 91.2065 129.036 90.9934C130.962 90.5435 130.891 90.9404 128.623 93.1248Z" fill="black"/>
<path d="M147.685 117.305C146.153 117.875 144.214 118.575 143.449 118.835C142.022 119.311 142.022 119.311 142.913 120.46C143.434 121.038 144.696 123.707 145.714 126.264C146.823 128.976 147.962 131.138 148.453 131.314C148.945 131.49 150.564 131.174 152.046 130.601C153.577 130.03 155.212 129.415 155.719 129.291C156.636 128.989 156.904 127.701 156.265 126.516C155.944 125.949 155.34 126.017 153.038 126.948L150.276 128.055L149.564 126.365C148.896 124.778 148.898 124.728 150.036 124.988C150.628 125.169 151.889 124.985 152.761 124.58C154.301 123.86 154.354 123.812 153.618 122.572C152.747 121.025 153.042 121.14 150.798 121.924C148.401 122.75 148.052 122.731 147.812 121.567C147.654 120.758 148.125 120.382 150.266 119.643C153.535 118.412 153.48 118.51 152.444 117.254C151.411 115.948 151.209 115.987 147.685 117.305Z" fill="black"/>
<path d="M134.66 122.23C131.843 123.435 130.81 124.031 131.399 124.263C132.179 124.654 136.3 133.932 136.232 135.23C136.174 136.329 137.065 136.526 138.705 135.81L140.245 135.09L138.856 131.963C138.096 130.221 137.215 127.922 136.871 126.852C136.321 124.921 136.324 124.871 137.648 124.44C140.194 123.622 141.346 126.486 138.839 127.506L137.51 128.037L138.803 129.156C140.096 130.276 140.146 130.278 141.841 129.466C144.253 128.34 144.51 127.252 142.985 123.868C141.379 120.129 140.338 119.924 134.66 122.23Z" fill="black"/>
<path d="M125.781 125.42C123.282 126.291 121.605 127.705 121.535 129.053C121.42 131.25 124.346 138.463 125.653 139.333C127.248 140.418 130.593 139.641 132.748 137.702C134.482 136.14 134.505 135.691 132.796 131.045C130.739 125.38 129.299 124.203 125.781 125.42ZM128.328 129.359C128.452 129.866 128.93 131.243 129.417 132.47C130.432 135.077 130.437 135.928 129.418 136.275C128.044 136.704 127.428 136.021 126.195 132.802C125.317 130.453 125.167 129.494 125.592 129.015C126.441 128.109 128.081 128.345 128.328 129.359Z" fill="black"/>
<path d="M111.92 131.003C110.285 131.618 110.23 131.716 111.047 132.359C111.67 132.893 115.83 142.373 115.786 143.222C115.754 143.821 119.286 143.305 121.336 142.411C123.898 141.294 124.329 140.715 123.55 139.323C123.185 138.653 122.833 138.684 120.949 139.287C119.727 139.673 118.615 139.865 118.429 139.605C118.239 139.395 117.351 137.246 116.48 134.747C115.557 132.295 114.61 130.293 114.258 130.324C113.959 130.309 112.892 130.603 111.92 131.003Z" fill="black"/>
<path d="M105.789 133.336C104.249 134.056 102.363 134.708 101.603 134.869C99.9347 135.182 99.8139 135.576 101.052 136.793C101.528 137.268 102.651 139.73 103.521 142.229C105.617 148.097 106.059 148.27 112.244 145.84C114.953 144.781 115.111 144.639 114.669 143.514C114.096 142.032 114.246 142.04 110.835 143.113C109.355 143.636 108.086 143.97 108.042 143.868C107.997 143.765 107.684 143.048 107.426 142.233C106.942 140.956 106.95 140.807 107.633 141.143C108.369 141.432 111.935 140.267 111.967 139.667C111.974 139.518 111.706 138.903 111.333 138.382C110.733 137.4 110.634 137.395 108.537 138.236C106.747 138.943 106.345 138.972 105.98 138.302C105.249 136.962 105.569 136.579 108.168 135.713C109.595 135.237 110.722 134.746 110.73 134.596C110.756 134.096 109.313 132.018 108.961 132.05C108.759 132.089 107.326 132.665 105.789 133.336Z" fill="black"/>
<path d="M97.3622 136.499C96.7972 136.77 96.2822 137.043 96.1798 137.088C96.0747 137.183 96.3695 139.201 96.8432 141.629C97.2643 144.105 97.5066 146.17 97.4015 146.265C97.2964 146.359 96.4552 145.214 95.5324 143.713C92.3091 138.337 92.501 138.498 90.207 139.279L88.2652 140.028L89.64 141.502C90.3996 142.293 92.3686 144.849 93.9986 147.188C95.9519 150.044 97.2346 151.363 97.6945 151.187C98.1018 151.058 99.0136 150.855 99.6706 150.739C100.328 150.624 100.906 150.103 100.929 149.654C100.966 148.955 100.175 140.151 99.7827 137.127C99.5958 135.915 98.9046 135.729 97.3622 136.499Z" fill="black"/>
<path d="M85.7059 141.096L84.3185 141.774L85.486 144.339C86.1118 145.774 86.5432 147.098 86.4302 147.342C86.3173 147.587 85.1161 146.623 83.6887 145.196L81.1206 142.608L79.1209 143.505L77.0714 144.399L78.3068 145.665C78.9719 146.351 79.5292 147.181 79.5161 147.431C79.5004 147.73 80.3315 150.027 81.3018 152.531L83.1137 157.132L84.6009 156.459C85.4207 156.102 86.0908 155.736 86.096 155.636C86.1012 155.536 85.6226 154.159 85.0046 152.575C84.3866 150.99 84.1025 149.724 84.3022 149.734C84.5519 149.747 85.4587 150.596 86.3551 151.644C88.5738 154.214 89.3544 154.605 90.8889 153.985C91.6037 153.722 92.2264 153.304 92.2369 153.104C92.2499 152.854 91.4688 150.56 90.4538 147.954C89.4886 145.35 88.4315 142.59 88.1737 141.776C87.6057 140.194 87.6057 140.194 85.7059 141.096Z" fill="black"/>
<defs>
<filter id="filter0_d_6_8" x="16" y="20" width="208" height="208" filterUnits="userSpaceOnUse" color-interpolation-filters="sRGB">
<feFlood flood-opacity="0" result="BackgroundImageFix"/>
<feColorMatrix in="SourceAlpha" type="matrix" values="0 0 0 0 0 0 0 0 0 0 0 0 0 0 0 0 0 0 127 0" result="hardAlpha"/>
<feOffset dy="4"/>
<feGaussianBlur stdDeviation="2"/>
<feComposite in2="hardAlpha" operator="out"/>
<feColorMatrix type="matrix" values="0 0 0 0 0 0 0 0 0 0 0 0 0 0 0 0 0 0 0.25 0"/>
<feBlend mode="normal" in2="BackgroundImageFix" result="effect1_dropShadow_6_8"/>
<feBlend mode="normal" in="SourceGraphic" in2="effect1_dropShadow_6_8" result="shape"/>
</filter>
</defs>
</svg>
