<svg width="40" height="40" viewBox="0 0 40 40" fill="none" xmlns="http://www.w3.org/2000/svg">
<g clip-path="url(#clip0_3_3)">
<path d="M15.137 29L14.465 25.164H9.59298L8.89298 29H3.20898L8.44498 8.98H15.473L20.793 29H15.137ZM12.813 16.988C12.7197 16.5027 12.6263 16.008 12.533 15.504C12.4397 14.9813 12.3463 14.468 12.253 13.964C12.1597 13.4413 12.085 12.956 12.029 12.508C11.973 12.956 11.8983 13.432 11.805 13.936C11.7303 14.44 11.6463 14.944 11.553 15.448C11.4597 15.952 11.357 16.4467 11.245 16.932L10.461 20.936H13.569L12.813 16.988Z" fill="black"/>
<path d="M37.2755 29H30.8075L25.3195 15.812H25.2075C25.2262 16.1107 25.2449 16.4653 25.2635 16.876C25.2822 17.2867 25.3009 17.7253 25.3195 18.192C25.3569 18.6587 25.3849 19.1253 25.4035 19.592C25.4222 20.0587 25.4315 20.488 25.4315 20.88V29H20.7275V9.008H27.1675L32.6275 21.916H32.7395C32.7209 21.6547 32.7022 21.328 32.6835 20.936C32.6649 20.544 32.6369 20.124 32.5995 19.676C32.5809 19.228 32.5622 18.78 32.5435 18.332C32.5435 17.884 32.5435 17.464 32.5435 17.072V9.008H37.2755V29Z" fill="black"/>
</g>
<defs>
<clipPath id="clip0_3_3">
<rect width="40" height="40" fill="white"/>
</clipPath>
</defs>
</svg>
